<svg xmlns="http://www.w3.org/2000/svg" xmlns:xlink="http://www.w3.org/1999/xlink" width="1800" height="7100" fill="none" xmlns:v="https://vecta.io/nano"><g clip-path="url(#J)"><path d="M0 0h1800v7100H0z"/><g opacity=".6"><path fill="url(#A)" d="M0 0h1800v7100H0z"/><path fill="url(#B)" d="M0 0h1800v7100H0z"/><path fill="url(#C)" d="M0 0h1800v7100H0z"/><path fill="url(#D)" d="M0 0h1800v7100H0z"/><path fill="url(#E)" d="M0 0h1800v7100H0z"/><path fill="url(#F)" d="M0 0h1800v7100H0z"/><path fill="url(#G)" d="M0 0h1800v7100H0z"/><path fill="url(#H)" d="M0 0h1800v7100H0z"/><path fill="url(#I)" d="M0 0h1800v7100H0z"/></g></g><defs><radialGradient id="A" cx="0" cy="0" r="1" gradientTransform="translate(2133.5 1630) rotate(142.038) scale(923.368 1361.9)" xlink:href="#K"><stop stop-color="#1e8e99" stop-opacity=".3"/><stop offset="1" stop-color="#1e8e99" stop-opacity="0"/></radialGradient><radialGradient id="B" cx="0" cy="0" r="1" gradientTransform="translate(1800 8.99088e-05) rotate(129.342) scale(1463.06 2082.14)" xlink:href="#K"><stop stop-color="#1e8e99" stop-opacity=".3"/><stop offset="1" stop-color="#1e8e99" stop-opacity="0"/></radialGradient><radialGradient id="C" cx="0" cy="0" r="1" gradientTransform="translate(-68 7205) rotate(-31.6447) scale(1313.26 1868.95)" xlink:href="#K"><stop stop-color="#1e8e99" stop-opacity=".3"/><stop offset="1" stop-color="#1e8e99" stop-opacity="0"/></radialGradient><radialGradient id="D" cx="0" cy="0" r="1" gradientTransform="translate(774 6426) rotate(9.31531) scale(608.525 811.089)" xlink:href="#K"><stop stop-color="#1e8e99" stop-opacity=".3"/><stop stop-color="#1e8e99" stop-opacity=".157"/><stop offset="1" stop-color="#1e8e99" stop-opacity="0"/></radialGradient><radialGradient id="E" cx="0" cy="0" r="1" gradientTransform="translate(129 3204) rotate(24.2999) scale(1974.43 1974.43)" xlink:href="#K"><stop offset=".179" stop-color="#c57ce9" stop-opacity=".3"/><stop offset=".518" stop-color="#c57ce9" stop-opacity="0"/></radialGradient><radialGradient id="F" cx="0" cy="0" r="1" gradientTransform="translate(1800 4856) rotate(-5.69463) scale(1607.43 1607.43)" xlink:href="#K"><stop offset=".179" stop-color="#c57ce9" stop-opacity=".3"/><stop offset=".518" stop-color="#c57ce9" stop-opacity="0"/></radialGradient><radialGradient id="G" cx="0" cy="0" r="1" gradientTransform="translate(1800 5268.5) rotate(105.75) scale(725.749 1175.26)" xlink:href="#K"><stop stop-color="#e97c7c" stop-opacity=".3"/><stop offset="1" stop-color="#e97c7c" stop-opacity="0"/></radialGradient><radialGradient id="H" cx="0" cy="0" r="1" gradientTransform="translate(1707.5 6933) rotate(-111.445) scale(821.903 1330.97)" xlink:href="#K"><stop stop-color="#e97c7c" stop-opacity=".3"/><stop offset="1" stop-color="#e97c7c" stop-opacity="0"/></radialGradient><radialGradient id="I" cx="0" cy="0" r="1" gradientTransform="translate(631.5 3955.5) rotate(40.4919) scale(994.085 1609.8)" xlink:href="#K"><stop stop-color="#e97c7c" stop-opacity=".3"/><stop offset="1" stop-color="#e97c7c" stop-opacity="0"/></radialGradient><clipPath id="J"><path d="M0 0h1800v7100H0z"/></clipPath><linearGradient id="K" gradientUnits="userSpaceOnUse"/></defs></svg>