<svg viewBox="0 0 512 512" xml:space="preserve" xmlns="http://www.w3.org/2000/svg" fill-rule="evenodd" clip-rule="evenodd" stroke-linejoin="round" stroke-miterlimit="2"><path d="M473.3-1.4a37.4 37.4 0 0 1 37.9 37v438.2c0 20.4-17 37-37.9 37H36.8a37.4 37.4 0 0 1-37.7-37V35.6c0-20.4 17-37 37.7-37h436.5ZM435.5 435V301c0-65.8-14.2-116.4-91.1-116.4-37 0-61.8 20.2-72 39.5h-1v-33.5h-72.8V435h75.9V314.2c0-32 6-62.8 45.6-62.8 39 0 39.4 36.4 39.4 64.8V435h76ZM151 190.6H75V435h76V190.6ZM113 69.2a44 44 0 1 0 0 88 44 44 0 0 0 0-88Z" fill-rule="nonzero"/></svg>
